<svg class="main-svg" xmlns="http://www.w3.org/2000/svg" xmlns:xlink="http://www.w3.org/1999/xlink" width="700" height="500" viewBox="0 0 700 500"><rect x="0" y="0" width="700" height="500" style="fill: rgb(255, 255, 255); fill-opacity: 1;"/><defs id="defs-9c74da"><g class="clips"><clipPath id="clip9c74dapolar-for-traces"><path d="M160,0A160,160 0,1,0 -160,-1.9594348786357652e-14A160,160 0,1,0 160,3.9188697572715304e-14Z" transform="translate(160,160)"/></clipPath></g><g class="gradients"/></defs><g class="bglayer"/><g class="layer-below"><g class="imagelayer"/><g class="shapelayer"/></g><g class="cartesianlayer"/><g class="polarlayer"><g class="polar"><g class="polarsublayer draglayer"/><g class="polarsublayer plotbg"><path d="M160,0A160,160 0,1,0 -160,-1.9594348786357652e-14A160,160 0,1,0 160,3.9188697572715304e-14Z" transform="translate(332.5,260)" style="fill: rgb(229, 236, 246); fill-opacity: 1;"/></g><g class="polarsublayer backplot"><g class="maplayer"/></g><g class="polarsublayer angular-grid" style="fill: none;"><path class="angularaxisgrid" d="M332.5,260L492.5,260" style="stroke: rgb(255, 255, 255); stroke-opacity: 1; stroke-width: 1px;"/><path class="angularaxisgrid" d="M332.5,260L252.50000000000003,121.4359353944898" style="stroke: rgb(255, 255, 255); stroke-opacity: 1; stroke-width: 1px;"/><path class="angularaxisgrid" d="M332.5,260L252.49999999999994,398.56406460551017" style="stroke: rgb(255, 255, 255); stroke-opacity: 1; stroke-width: 1px;"/></g><g class="polarsublayer radial-grid" transform="translate(332.5,260)" style="fill: none;"><path class="xgrid" d="M27.57,0A27.57,27.57 0,1,0 -27.57,-3.3763512252492527e-15A27.57,27.57 0,1,0 27.57,6.7527024504985055e-15Z" style="stroke: rgb(255, 255, 255); stroke-opacity: 1; stroke-width: 1px;"/><path class="xgrid" d="M55.13,0A55.13,55.13 0,1,0 -55.13,-6.751477803699359e-15A55.13,55.13 0,1,0 55.13,1.3502955607398717e-14Z" style="stroke: rgb(255, 255, 255); stroke-opacity: 1; stroke-width: 1px;"/><path class="xgrid" d="M82.7,0A82.7,82.7 0,1,0 -82.7,-1.012782902894861e-14A82.7,82.7 0,1,0 82.7,2.025565805789722e-14Z" style="stroke: rgb(255, 255, 255); stroke-opacity: 1; stroke-width: 1px;"/><path class="xgrid" d="M110.26,0A110.26,110.26 0,1,0 -110.26,-1.3502955607398717e-14A110.26,110.26 0,1,0 110.26,2.7005911214797435e-14Z" style="stroke: rgb(255, 255, 255); stroke-opacity: 1; stroke-width: 1px;"/><path class="xgrid" d="M137.83,0A137.83,137.83 0,1,0 -137.83,-1.687930683264797e-14A137.83,137.83 0,1,0 137.83,3.375861366529594e-14Z" style="stroke: rgb(255, 255, 255); stroke-opacity: 1; stroke-width: 1px;"/></g><g class="polarsublayer frontplot" transform="translate(172.5,100)"><g class="barlayer"/><g class="scatterlayer"><g class="trace scatter trace8de623" style="stroke-miterlimit: 2; opacity: 1;"><g class="fills" clip-path="url('#clip9c74dapolar-for-traces')"/><g class="errorbars"/><g class="lines"><path class="js-line" d="M316.25,160L111.09,75.28L115.04,237.87L316.25,160" clip-path="url('#clip9c74dapolar-for-traces')" style="vector-effect: non-scaling-stroke; fill: none; stroke: rgb(255, 0, 0); stroke-opacity: 1; stroke-width: 2px; opacity: 1;"/></g><g class="points"><path class="point" transform="translate(316.25,160)" d="M3,0A3,3 0 1,1 0,-3A3,3 0 0,1 3,0Z" style="opacity: 1; stroke-width: 0px; fill: rgb(255, 0, 0); fill-opacity: 1;"/><path class="point" transform="translate(111.09,75.28)" d="M3,0A3,3 0 1,1 0,-3A3,3 0 0,1 3,0Z" style="opacity: 1; stroke-width: 0px; fill: rgb(255, 0, 0); fill-opacity: 1;"/><path class="point" transform="translate(115.04,237.87)" d="M3,0A3,3 0 1,1 0,-3A3,3 0 0,1 3,0Z" style="opacity: 1; stroke-width: 0px; fill: rgb(255, 0, 0); fill-opacity: 1;"/><path class="point" transform="translate(316.25,160)" d="M3,0A3,3 0 1,1 0,-3A3,3 0 0,1 3,0Z" style="opacity: 1; stroke-width: 0px; fill: rgb(255, 0, 0); fill-opacity: 1;"/></g><g class="text"/></g><g class="trace scatter traceed6401" style="stroke-miterlimit: 2; opacity: 1;"><g class="fills" clip-path="url('#clip9c74dapolar-for-traces')"/><g class="errorbars"/><g class="lines"><path class="js-line" d="M315.91,160L104.19,63.33L82.72,293.86L315.91,160" clip-path="url('#clip9c74dapolar-for-traces')" style="vector-effect: non-scaling-stroke; fill: none; stroke: rgb(0, 128, 0); stroke-opacity: 1; stroke-width: 2px; opacity: 1;"/></g><g class="points"><path class="point" transform="translate(315.91,160)" d="M3,0A3,3 0 1,1 0,-3A3,3 0 0,1 3,0Z" style="opacity: 1; stroke-width: 0px; fill: rgb(0, 128, 0); fill-opacity: 1;"/><path class="point" transform="translate(104.19,63.33)" d="M3,0A3,3 0 1,1 0,-3A3,3 0 0,1 3,0Z" style="opacity: 1; stroke-width: 0px; fill: rgb(0, 128, 0); fill-opacity: 1;"/><path class="point" transform="translate(82.72,293.86)" d="M3,0A3,3 0 1,1 0,-3A3,3 0 0,1 3,0Z" style="opacity: 1; stroke-width: 0px; fill: rgb(0, 128, 0); fill-opacity: 1;"/><path class="point" transform="translate(315.91,160)" d="M3,0A3,3 0 1,1 0,-3A3,3 0 0,1 3,0Z" style="opacity: 1; stroke-width: 0px; fill: rgb(0, 128, 0); fill-opacity: 1;"/></g><g class="text"/></g><g class="trace scatter trace328426" style="stroke-miterlimit: 2; opacity: 1;"><g class="fills" clip-path="url('#clip9c74dapolar-for-traces')"/><g class="errorbars"/><g class="lines"><path class="js-line" d="M315.71,160L97.88,52.41L96.28,270.36L315.71,160" clip-path="url('#clip9c74dapolar-for-traces')" style="vector-effect: non-scaling-stroke; fill: none; stroke: rgb(0, 0, 255); stroke-opacity: 1; stroke-width: 2px; opacity: 1;"/></g><g class="points"><path class="point" transform="translate(315.71,160)" d="M3,0A3,3 0 1,1 0,-3A3,3 0 0,1 3,0Z" style="opacity: 1; stroke-width: 0px; fill: rgb(0, 0, 255); fill-opacity: 1;"/><path class="point" transform="translate(97.88,52.41)" d="M3,0A3,3 0 1,1 0,-3A3,3 0 0,1 3,0Z" style="opacity: 1; stroke-width: 0px; fill: rgb(0, 0, 255); fill-opacity: 1;"/><path class="point" transform="translate(96.28,270.36)" d="M3,0A3,3 0 1,1 0,-3A3,3 0 0,1 3,0Z" style="opacity: 1; stroke-width: 0px; fill: rgb(0, 0, 255); fill-opacity: 1;"/><path class="point" transform="translate(315.71,160)" d="M3,0A3,3 0 1,1 0,-3A3,3 0 0,1 3,0Z" style="opacity: 1; stroke-width: 0px; fill: rgb(0, 0, 255); fill-opacity: 1;"/></g><g class="text"/></g></g></g><g class="polarsublayer angular-line"><path d="M160,0A160,160 0,1,0 -160,-1.9594348786357652e-14A160,160 0,1,0 160,3.9188697572715304e-14Z" transform="translate(332.5,260)" stroke-width="1" style="fill: none; stroke: rgb(255, 255, 255); stroke-opacity: 1;"/></g><g class="polarsublayer radial-line"><line x1="0" y1="0" x2="160" y2="0" transform="translate(332.5,260)rotate(0)" stroke-width="1" style="fill: none; stroke: rgb(255, 255, 255); stroke-opacity: 1;"/></g><g class="polarsublayer angular-axis"><g class="angularaxistick"><text text-anchor="start" x="4.1" y="6.3" transform="translate(492.5,260)" style="font-family: 'Courier New', monospace; font-size: 18px; fill: rgb(0, 0, 0); fill-opacity: 1; white-space: pre;">Confirmed</text></g><g class="angularaxistick"><text text-anchor="end" x="-2.049999999999999" y="-3.518395609140179" transform="translate(252.50000000000003,121.4359353944898)" style="font-family: 'Courier New', monospace; font-size: 18px; fill: rgb(0, 0, 0); fill-opacity: 1; white-space: pre;">Deaths</text></g><g class="angularaxistick"><text text-anchor="end" x="-2.0500000000000016" y="22.289161423636095" transform="translate(252.49999999999994,398.56406460551017)" style="font-family: 'Courier New', monospace; font-size: 18px; fill: rgb(0, 0, 0); fill-opacity: 1; white-space: pre;">Recovered</text></g></g><g class="polarsublayer radial-axis" transform="translate(332.5,260)rotate(0)"><g class="xtick"><text text-anchor="middle" x="0" y="22.1" transform="translate(0,0)" style="font-family: 'Courier New', monospace; font-size: 18px; fill: rgb(0, 0, 0); fill-opacity: 1; white-space: pre;">0</text></g><g class="xtick"><text text-anchor="middle" x="0" y="22.1" transform="translate(27.57,0)" style="font-family: 'Courier New', monospace; font-size: 18px; fill: rgb(0, 0, 0); fill-opacity: 1; white-space: pre;">2</text></g><g class="xtick"><text text-anchor="middle" x="0" y="22.1" transform="translate(55.13,0)" style="font-family: 'Courier New', monospace; font-size: 18px; fill: rgb(0, 0, 0); fill-opacity: 1; white-space: pre;">4</text></g><g class="xtick"><text text-anchor="middle" x="0" y="22.1" transform="translate(82.7,0)" style="font-family: 'Courier New', monospace; font-size: 18px; fill: rgb(0, 0, 0); fill-opacity: 1; white-space: pre;">6</text></g><g class="xtick"><text text-anchor="middle" x="0" y="22.1" transform="translate(110.26,0)" style="font-family: 'Courier New', monospace; font-size: 18px; fill: rgb(0, 0, 0); fill-opacity: 1; white-space: pre;">8</text></g><g class="xtick"><text text-anchor="middle" x="0" y="22.1" transform="translate(137.83,0)" style="font-family: 'Courier New', monospace; font-size: 18px; fill: rgb(0, 0, 0); fill-opacity: 1; white-space: pre;">10</text></g></g></g></g><g class="ternarylayer"/><g class="geolayer"/><g class="funnelarealayer"/><g class="pielayer"/><g class="treemaplayer"/><g class="sunburstlayer"/><g class="glimages"/><defs id="topdefs-9c74da"><g class="clips"/><clipPath id="legend9c74da"><rect width="93" height="82" x="0" y="0"/></clipPath></defs><g class="layer-above"><g class="imagelayer"/><g class="shapelayer"/></g><g class="infolayer"><g class="legend" pointer-events="all" transform="translate(595.1, 100)"><rect class="bg" shape-rendering="crispEdges" width="93" height="82" x="0" y="0" style="stroke: rgb(68, 68, 68); stroke-opacity: 1; fill: rgb(255, 255, 255); fill-opacity: 1; stroke-width: 0px;"/><g class="scrollbox" transform="translate(0, 0)" clip-path="url('#legend9c74da')"><g class="groups"><g class="traces" transform="translate(0, 16.9)" style="opacity: 1;"><text class="legendtext user-select-none" text-anchor="start" x="40" y="6.24" style="font-family: 'Courier New', monospace; font-size: 16px; fill: rgb(0, 0, 0); fill-opacity: 1; white-space: pre;">USA</text><g class="layers" style="opacity: 1;"><g class="legendfill"/><g class="legendlines"><path class="js-line" d="M5,0h30" style="fill: none; stroke: rgb(255, 0, 0); stroke-opacity: 1; stroke-width: 2px;"/></g><g class="legendsymbols"><g class="legendpoints"><path class="scatterpts" transform="translate(20,0)" d="M3,0A3,3 0 1,1 0,-3A3,3 0 0,1 3,0Z" style="opacity: 1; stroke-width: 0px; fill: rgb(255, 0, 0); fill-opacity: 1;"/></g></g></g><rect class="legendtoggle" pointer-events="all" x="0" y="-11.9" width="88" height="23.8" style="cursor: pointer; fill: rgb(0, 0, 0); fill-opacity: 0;"/></g><g class="traces" transform="translate(0, 40.7)" style="opacity: 1;"><text class="legendtext user-select-none" text-anchor="start" x="40" y="6.24" style="font-family: 'Courier New', monospace; font-size: 16px; fill: rgb(0, 0, 0); fill-opacity: 1; white-space: pre;">China</text><g class="layers" style="opacity: 1;"><g class="legendfill"/><g class="legendlines"><path class="js-line" d="M5,0h30" style="fill: none; stroke: rgb(0, 128, 0); stroke-opacity: 1; stroke-width: 2px;"/></g><g class="legendsymbols"><g class="legendpoints"><path class="scatterpts" transform="translate(20,0)" d="M3,0A3,3 0 1,1 0,-3A3,3 0 0,1 3,0Z" style="opacity: 1; stroke-width: 0px; fill: rgb(0, 128, 0); fill-opacity: 1;"/></g></g></g><rect class="legendtoggle" pointer-events="all" x="0" y="-11.9" width="88" height="23.8" style="cursor: pointer; fill: rgb(0, 0, 0); fill-opacity: 0;"/></g><g class="traces" transform="translate(0, 64.5)" style="opacity: 1;"><text class="legendtext user-select-none" text-anchor="start" x="40" y="6.24" style="font-family: 'Courier New', monospace; font-size: 16px; fill: rgb(0, 0, 0); fill-opacity: 1; white-space: pre;">Italy</text><g class="layers" style="opacity: 1;"><g class="legendfill"/><g class="legendlines"><path class="js-line" d="M5,0h30" style="fill: none; stroke: rgb(0, 0, 255); stroke-opacity: 1; stroke-width: 2px;"/></g><g class="legendsymbols"><g class="legendpoints"><path class="scatterpts" transform="translate(20,0)" d="M3,0A3,3 0 1,1 0,-3A3,3 0 0,1 3,0Z" style="opacity: 1; stroke-width: 0px; fill: rgb(0, 0, 255); fill-opacity: 1;"/></g></g></g><rect class="legendtoggle" pointer-events="all" x="0" y="-11.9" width="88" height="23.8" style="cursor: pointer; fill: rgb(0, 0, 0); fill-opacity: 0;"/></g></g></g><rect class="scrollbar" rx="20" ry="3" width="0" height="0" x="0" y="0" style="fill: rgb(128, 139, 164); fill-opacity: 1;"/></g><g class="g-gtitle"><text class="gtitle" x="350" y="25" text-anchor="middle" dy="0.7em" style="font-family: 'Courier New', monospace; font-size: 25px; fill: rgb(0, 0, 0); opacity: 1; font-weight: normal; white-space: pre;">Comparison between China, Italy and USA</text></g><g class="g-polartitle"/><g class="annotation" data-index="0" style="opacity: 1;"><g class="annotation-text-g" transform="rotate(0,454,380.5)"><g class="cursor-pointer" transform="translate(323, 373)"><rect class="bg" x="0.5" y="0.5" width="261" height="14" style="stroke-width: 1px; stroke: rgb(0, 0, 0); stroke-opacity: 1; fill: rgb(0, 0, 0); fill-opacity: 0;"/><text class="annotation-text" text-anchor="middle" x="131.015625" y="10" style="font-family: 'Courier New', monospace; font-size: 10px; fill: rgb(0, 0, 0); fill-opacity: 1; white-space: pre;">* All measurements are in logarithmic scale</text></g></g></g></g></svg>